<svg xmlns="http://www.w3.org/2000/svg" viewBox="0 0 32 32" fill="#e0b723"><path d="M15 14.7c-.4.9-.8 2.1-1.6 3.5-.3.6-.6.7-.9 1.7 1.6-1 3.5-1.2 5.6-1.6-.1-.1-.3-.2-.4-.4-1.1-.7-2-1.9-2.7-3.2zm.1-4.2c.3-.5.5-1.2.5-2.2 0-1-.3-2.1-.7-2.1-.2 0-.2 1.5-.2 1.5.1.9.2 2.1.4 2.8zM6.6 25.4c.6-.3 1.6-1.2 3.1-3.6l-.5.5c-1.4 1.2-2.3 2.5-2.6 3.1z"/><path d="M16 0C7.2 0 0 7.2 0 16s7.2 16 16 16 16-7.2 16-16S24.8 0 16 0zm10.4 20.6c-.1.2-.4.4-.7.4-.2 0-.4.1-.7.1-1.4 0-3.7-.7-5.6-1.8-2.4.4-5.2 1-7.6 1.8-2.1 3.7-3.6 5.3-5 5.3-.2 0-.5-.1-.7-.2l-.4-.2c-.3-.2-.4-.6-.3-.9.2-1 1.4-2.3 3.3-3.4.2-.1 1.1-.6 1.2-.6l.5-.3c.5-.9 1.1-2 1.7-3.2l.1-.2c.6-1.2 1.3-2.5 1.8-3.9l.2-.5c-.8-2.9-1.2-5.2-.8-6.7.1-.5.7-.8 1.3-.8h.3c.6 0 .9.4 1.1.8l.1.2c0 .1.1.2.1.4.2 1.3-.5 5.1-.5 5.1 0 .1-.1.3-.1.4.6 1.7 1.6 3.3 2.8 4.4.4.4 1 .8 1.6 1.1 1.2-.2 2.4-.3 3.4-.2 1.4 0 2.4.2 2.8.7.2.1.3.4.3.5.1.7.1 1.2-.2 1.7z"/><path d="M25.3 19.1c-.8-.2-1-.2-1.8-.2-.4 0-.9 0-1.4.1 1.3.6 2.3.9 3.1.9.2 0 .8 0 .8-.1s.1-.5-.7-.7z"/></svg>
