<?xml version="1.0" encoding="UTF-8" standalone="no"?>
<!DOCTYPE svg  PUBLIC '-//W3C//DTD SVG 1.1//EN'  'http://www.w3.org/Graphics/SVG/1.1/DTD/svg11.dtd'>
<svg xmlns="http://www.w3.org/2000/svg" version="1.1">
<defs>
<font id="Seravek-Light" horiz-adv-x="248">
<font-face unicode-range="U+0020-00FE" font-weight="300" descent="-200" font-family="Seravek Light" x-height="477" underline-thickness="36" underline-position="-268" units-per-em="1000" panose-1="2 11 5 3 4 0 0 2 0 4" cap-height="666" bbox="-27 -250 895 841" ascent="800"/>
<missing-glyph/>
<glyph glyph-name="space" unicode=" " horiz-adv-x="215"/>
<glyph glyph-name="exclam" unicode="!" d="M179 460l-15 -292h-40l-15 292v206h70v-206zM95 41q0 21 14 35t35 14t35 -14t14 -35t-14 -35t-35 -14t-35 14t-14 35z" horiz-adv-x="288"/>
<glyph glyph-name="quotedbl" unicode='&quot;' d="M139 435h-50l-9 231h68zM313 435h-50l-9 231h68z" horiz-adv-x="402"/>
<glyph glyph-name="numbersign" unicode="#" d="M410 0l20 185h-211l-20 -185h-56l19 185h-112v48h117l22 208h-119v48h125l19 177h56l-19 -177h211l19 177h56l-19 -177h106v-48h-112l-21 -208h111v-48h-117l-19 -185h-56zM246 441l-22 -208h211l22 208h-211z" horiz-adv-x="669"/>
<glyph glyph-name="dollar" unicode="$" d="M269 -120h-61v120q-76 7 -143 40l13 53q84 -39 155 -39q62 0 96.5 29.5t34.5 87.5q0 50 -33.5 83.5t-99.5 68.5q-77 41 -115.5 84.5t-38.5 101.5q0 67 41.5 107.5t104.5 46.5v123h61v-122q67 -5 125 -33l-12 -53q-73 34 -137 34q-57 0 -87.5 -26t-30.5 -74 q0 -32 16.5 -56.5t37 -38.5t67.5 -42q36 -20 60.5 -37t51.5 -42t40.5 -56t13.5 -67q0 -68 -41.5 -112t-118.5 -58v-123z" horiz-adv-x="489"/>
<glyph glyph-name="percent" unicode="%" d="M256 12l318 666l49 -24l-319 -666zM380 485q0 -78 -42.5 -135.5t-117.5 -57.5q-76 0 -118 57t-42 136t42 136t118 57q75 0 117.5 -57t42.5 -136zM118 485q0 -61 26 -102.5t76 -41.5t76 41.5t26 102.5t-26 102.5t-76 41.5t-76 -41.5t-26 -102.5zM817 181 q0 -78 -42.5 -135.5t-117.5 -57.5q-76 0 -118 57t-42 136t42 136t118 57q75 0 117.5 -57t42.5 -136zM555 181q0 -61 26 -102.5t76 -41.5t76 41.5t26 102.5t-26 102.5t-76 41.5t-76 -41.5t-26 -102.5z" horiz-adv-x="877"/>
<glyph glyph-name="ampersand" unicode="&amp;" d="M594 378l49 -24q-52 -130 -111 -202q10 -7 179 -115l-30 -49q-75 45 -184 120q-107 -120 -243 -120q-87 0 -139.5 43t-52.5 113q0 99 140 190q-104 88 -104 188q0 69 48 112.5t126 43.5q70 0 115 -38t45 -96q0 -105 -148 -209q89 -77 203 -152q51 67 107 195zM254 40 q112 0 199 100q-136 90 -212 160q-36 -27 -54.5 -42.5t-39 -47t-20.5 -63.5q0 -52 34.5 -79.5t92.5 -27.5zM159 521q0 -79 86 -154q127 87 127 172q0 41 -29 65.5t-74 24.5q-51 0 -80.5 -28.5t-29.5 -79.5z" horiz-adv-x="731"/>
<glyph glyph-name="quotesingle" unicode="&apos;" d="M139 435h-50l-9 231h68z" horiz-adv-x="228"/>
<glyph glyph-name="parenleft" unicode="(" d="M147 280q0 -114 28 -215.5t94 -222.5l-53 -28q-71 127 -103.5 235t-32.5 231t32.5 231t103.5 235l53 -28q-66 -121 -94 -222.5t-28 -215.5z" horiz-adv-x="329"/>
<glyph glyph-name="parenright" unicode=")" d="M182 280q0 114 -28 215.5t-94 222.5l53 28q71 -127 103.5 -235t32.5 -231t-32.5 -231t-103.5 -235l-53 28q66 121 94 222.5t28 215.5z" horiz-adv-x="329"/>
<glyph glyph-name="asterisk" unicode="*" d="M329 458l-108 61v-123h-36v123l-107 -61l-18 32l107 61l-107 61l18 31l107 -62v125h36v-125l108 62l18 -31l-107 -61l107 -61z" horiz-adv-x="407"/>
<glyph glyph-name="plus" unicode="+" d="M528 298h-196v-209h-59v209h-196v51h196v209h59v-209h196v-51z" horiz-adv-x="605"/>
<glyph glyph-name="comma" unicode="," d="M89 -152l-47 25q57 115 61 223l65 -6q-5 -126 -79 -242z" horiz-adv-x="243"/>
<glyph glyph-name="hyphen" unicode="-" d="M295 231h-235v55h235v-55z" horiz-adv-x="355"/>
<glyph glyph-name="period" unicode="." d="M75 41q0 21 14 35t35 14t35 -14t14 -35t-14 -35t-35 -14t-35 14t-14 35z"/>
<glyph glyph-name="slash" unicode="/" d="M55 -80l252 765l56 -19l-252 -766z" horiz-adv-x="413"/>
<glyph glyph-name="zero" unicode="0" d="M527 333q0 -152 -59 -248.5t-176 -96.5t-176 96.5t-59 248.5t59 248.5t176 96.5t176 -96.5t59 -248.5zM292 43q87 0 127.5 78.5t40.5 211.5q0 132 -40.5 211t-127.5 79t-127.5 -79t-40.5 -211q0 -133 40.5 -211.5t127.5 -78.5z" horiz-adv-x="584"/>
<glyph glyph-name="one" unicode="1" d="M245 0h-67v596l-136 -59l-20 52l176 77h47v-666z" horiz-adv-x="335"/>
<glyph glyph-name="two" unicode="2" d="M86 586l-18 53q57 39 146 39q87 0 138.5 -51.5t51.5 -138.5q0 -75 -36.5 -142.5t-107.5 -141.5q-23 -23 -53 -54t-51.5 -52.5t-43.5 -41.5h304v-56h-380l-8 43q29 32 92 96.5t96 102.5q60 66 90.5 123.5t30.5 119.5q0 64 -33 100.5t-96 36.5q-59 0 -122 -36z" horiz-adv-x="461"/>
<glyph glyph-name="three" unicode="3" d="M416 173q0 -83 -60 -134t-154 -51q-79 0 -152 33l14 55q67 -32 136 -32q72 0 110.5 34.5t38.5 90.5q0 70 -54 107.5t-137 37.5h-42v56h37q79 0 131 39.5t52 104.5q0 51 -32.5 79.5t-89.5 28.5q-70 0 -125 -30l-15 52q61 34 146 34q81 0 132 -42.5t51 -113.5 q0 -61 -38.5 -106.5t-105.5 -69.5q71 -16 114 -61.5t43 -111.5z" horiz-adv-x="476"/>
<glyph glyph-name="four" unicode="4" d="M487 202h-92v-202h-65v202h-281l-9 53l285 411h70v-409h92v-55zM330 257v324l-221 -324h221z" horiz-adv-x="525"/>
<glyph glyph-name="five" unicode="5" d="M446 184q0 -87 -64 -141.5t-164 -54.5q-91 0 -153 29l12 55q70 -29 141 -29q73 0 117 36.5t44 99.5q0 71 -52.5 106.5t-137.5 35.5h-92v345h327v-55h-260v-234h40q101 0 171.5 -51t70.5 -142z" horiz-adv-x="498"/>
<glyph glyph-name="six" unicode="6" d="M376 678l26 -49q-124 -67 -191 -139.5t-86 -186.5q65 79 168 79q87 0 138 -52t51 -137q0 -88 -58 -146.5t-146 -58.5q-70 0 -121 40t-74 96.5t-23 119.5q0 280 316 434zM417 191q0 67 -36.5 101.5t-100.5 34.5q-85 0 -155 -79q-4 -81 36.5 -143.5t116.5 -62.5 q64 0 101.5 42.5t37.5 106.5z" horiz-adv-x="535"/>
<glyph glyph-name="seven" unicode="7" d="M393 666l10 -56l-269 -610h-69l272 610h-300v56h356z" horiz-adv-x="444"/>
<glyph glyph-name="eight" unicode="8" d="M267 678q78 0 131 -39.5t53 -108.5q0 -53 -35.5 -95t-99.5 -83q153 -82 153 -196q0 -74 -59.5 -121t-142.5 -47q-87 0 -144.5 44.5t-57.5 120.5q0 111 153 197q-135 73 -135 179q0 68 53 108.5t131 40.5zM404 155q0 52 -30.5 84.5t-106.5 78.5q-38 -25 -55 -37.5 t-40.5 -34.5t-32.5 -44.5t-9 -50.5q0 -51 37 -80.5t100 -29.5q62 0 99.5 31.5t37.5 82.5zM147 529q0 -47 26.5 -77t93.5 -69q58 36 89 70.5t31 75.5t-32 68.5t-88 27.5q-57 0 -88.5 -27t-31.5 -69z" horiz-adv-x="534"/>
<glyph glyph-name="nine" unicode="9" d="M157 -12l-26 49q124 67 191 139.5t86 186.5q-63 -79 -168 -79q-86 0 -137.5 52t-51.5 137q0 89 56 147t148 58q70 0 121 -40t74 -96.5t23 -119.5q0 -280 -316 -434zM116 476q0 -68 35 -102.5t99 -34.5q93 0 158 79q3 82 -36.5 143.5t-116.5 61.5q-64 0 -101.5 -42 t-37.5 -105z" horiz-adv-x="535"/>
<glyph glyph-name="colon" unicode=":" d="M75 41q0 21 14 35t35 14t35 -14t14 -35t-14 -35t-35 -14t-35 14t-14 35zM75 364q0 21 14 35t35 14t35 -14t14 -35t-14 -35t-35 -14t-35 14t-14 35z"/>
<glyph glyph-name="semicolon" unicode=";" d="M88 364q0 21 14 35t35 14t35 -14t14 -35t-14 -35t-35 -14t-35 14t-14 35zM89 -152l-47 25q57 115 61 223l65 -6q-5 -126 -79 -242z" horiz-adv-x="261"/>
<glyph glyph-name="less" unicode="&lt;" d="M70 348l428 219l23 -48l-389 -196l389 -196l-23 -48l-428 219v50z" horiz-adv-x="586"/>
<glyph glyph-name="equal" unicode="=" d="M87 402v51h441v-51h-441zM87 193v51h441v-51h-441z" horiz-adv-x="615"/>
<glyph glyph-name="greater" unicode="&gt;" d="M88 567l428 -219v-50l-428 -219l-23 48l389 196l-389 196z" horiz-adv-x="586"/>
<glyph glyph-name="question" unicode="?" d="M392 505q0 -48 -21.5 -94t-61 -86t-74.5 -68t-84 -61l-35 47q106 78 142 116q67 71 67 144q0 57 -33 87.5t-90 30.5q-60 0 -128 -36l-19 53q64 40 152 40q85 0 135 -46t50 -127zM113 41q0 21 14 35t35 14t35 -14t14 -35t-14 -35t-35 -14t-35 14t-14 35z" horiz-adv-x="447"/>
<glyph glyph-name="at" unicode="@" d="M444 396q52 0 99 -22l-26 -147q-3 -17 -3 -31q0 -71 61 -71q56 0 91 52t35 130q0 108 -73 168.5t-192 60.5q-136 0 -228 -89.5t-92 -236.5q0 -135 76.5 -208.5t219.5 -73.5q133 0 242 53l13 -41q-121 -56 -260 -56q-160 0 -251 90t-91 235q0 168 104.5 269.5t268.5 101.5 q140 0 226.5 -76t86.5 -195q0 -99 -52 -162t-130 -63q-47 0 -75.5 30.5t-28.5 73.5q-19 -42 -52 -71t-67 -29q-38 0 -56 30t-18 75q0 85 45 144t127 59zM440 352q-57 0 -86.5 -47.5t-29.5 -111.5q0 -61 36 -61q27 0 55.5 33t51.5 85l17 96q-18 6 -44 6z" horiz-adv-x="806"/>
<glyph glyph-name="A" unicode="A" d="M360 666l264 -666h-71l-65 170h-322l-65 -170h-71l264 666h66zM467 226l-140 370l-140 -370h280z" horiz-adv-x="654"/>
<glyph glyph-name="B" unicode="B" d="M508 185q0 -82 -67.5 -133.5t-181.5 -51.5h-174v666h187q96 0 154.5 -43t58.5 -115q0 -58 -39 -99t-106 -62q74 -13 121 -54.5t47 -107.5zM442 187q0 63 -55 96t-137 33h-101v-261h115q83 0 130.5 34t47.5 98zM149 371h91q80 0 129.5 35.5t49.5 94.5q0 53 -41 81.5 t-109 28.5h-120v-240z" horiz-adv-x="551"/>
<glyph glyph-name="C" unicode="C" d="M384 678q101 0 170 -30l-12 -54q-75 27 -151 27q-135 0 -207 -76t-72 -212t72 -212t207 -76q76 0 151 27l12 -54q-69 -30 -170 -30q-157 0 -248.5 97t-91.5 248t91.5 248t248.5 97z" horiz-adv-x="600"/>
<glyph glyph-name="D" unicode="D" d="M85 0v666h165q168 0 273.5 -93t105.5 -240t-105.5 -240t-273.5 -93h-165zM153 56h98q134 0 222 73.5t88 203.5q0 129 -88.5 203t-221.5 74h-98v-554z" horiz-adv-x="671"/>
<glyph glyph-name="E" unicode="E" d="M85 0v666h356v-56h-288v-241h276v-56h-276v-257h291v-56h-359z" horiz-adv-x="500"/>
<glyph glyph-name="F" unicode="F" d="M153 0h-68v666h358v-57h-290v-254h278v-57h-278v-298z" horiz-adv-x="480"/>
<glyph glyph-name="G" unicode="G" d="M397 678q119 0 196 -37l-12 -55q-86 36 -183 36q-131 0 -208.5 -78t-77.5 -218q0 -135 74 -209t213 -74q80 0 137 18v226h63v-265q-86 -34 -208 -34q-160 0 -253.5 93t-93.5 245q0 160 95.5 256t257.5 96z" horiz-adv-x="674"/>
<glyph glyph-name="H" unicode="H" d="M601 0h-68v308h-380v-308h-68v666h68v-299h380v299h68v-666z" horiz-adv-x="686"/>
<glyph glyph-name="I" unicode="I" d="M158 666v-666h-68v666h68z"/>
<glyph glyph-name="J" unicode="J" d="M158 152q-2 -98 -25 -164.5t-90 -139.5l-49 39q51 58 73.5 117.5t22.5 134.5v527h68v-514z" horiz-adv-x="238"/>
<glyph glyph-name="K" unicode="K" d="M153 0h-68v666h68v-324l293 324h85l-299 -330l325 -336h-92l-312 331v-331z" horiz-adv-x="567"/>
<glyph glyph-name="L" unicode="L" d="M85 666h68v-610h281v-56h-349v666z" horiz-adv-x="458"/>
<glyph glyph-name="M" unicode="M" d="M382 125l-211 428l-36 -553h-66l48 666h63l239 -480l239 480h63l48 -666h-66l-36 553l-211 -428h-74z" horiz-adv-x="838"/>
<glyph glyph-name="N" unicode="N" d="M610 0h-65l-395 557v-557h-65v666h65l395 -557v557h65v-666z" horiz-adv-x="695"/>
<glyph glyph-name="O" unicode="O" d="M365 -12q-98 0 -172 48.5t-110.5 126t-36.5 170.5t36.5 170.5t110.5 126t172 48.5t172 -48.5t110.5 -126t36.5 -170.5t-36.5 -170.5t-110.5 -126t-172 -48.5zM365 44q116 0 183.5 82.5t67.5 206.5q0 123 -67.5 206t-183.5 83q-115 0 -183 -83t-68 -206 q0 -124 67.5 -206.5t183.5 -82.5z" horiz-adv-x="730"/>
<glyph glyph-name="P" unicode="P" d="M477 476q0 -94 -74 -149t-192 -55h-58v-272h-68v666h149q105 0 174 -50t69 -140zM409 476q0 68 -51 101t-127 33h-78v-282h61q87 0 141 39t54 109z" horiz-adv-x="496"/>
<glyph glyph-name="Q" unicode="Q" d="M365 -12q-98 0 -172 48.5t-110.5 126t-36.5 170.5t36.5 170.5t110.5 126t172 48.5t172 -48.5t110.5 -126t36.5 -170.5q0 -104 -47 -189t-132 -126l174 -107l-33 -51l-213 135q-28 -7 -68 -7zM365 44q116 0 183.5 82.5t67.5 206.5q0 123 -67.5 206t-183.5 83 q-115 0 -183 -83t-68 -206q0 -124 67.5 -206.5t183.5 -82.5z" horiz-adv-x="730"/>
<glyph glyph-name="R" unicode="R" d="M489 483q0 -75 -50.5 -123.5t-129.5 -68.5l239 -291h-83l-226 280q-22 -2 -38 -2h-48v-278h-68v666h160q105 0 174.5 -47t69.5 -136zM421 481q0 65 -51 97t-127 32h-90v-276h54q93 0 153.5 37.5t60.5 109.5z" horiz-adv-x="558"/>
<glyph glyph-name="S" unicode="S" d="M456 170q0 -81 -62 -131.5t-161 -50.5q-102 0 -185 39l15 55q84 -38 168 -38q72 0 115 33t43 90q0 30 -11 53t-37 42.5t-46.5 31t-59.5 29.5q-42 20 -66 34.5t-53 37.5t-42.5 52t-13.5 64q0 79 57 123t144 44q95 0 167 -35l-14 -57q-74 36 -152 36q-64 0 -99.5 -26.5 t-35.5 -79.5q0 -26 6 -43.5t26 -33.5t37.5 -26t60.5 -31q97 -48 130 -76q69 -56 69 -136z" horiz-adv-x="499"/>
<glyph glyph-name="T" unicode="T" d="M24 666h470v-56h-201v-610h-68v610h-201v56z" horiz-adv-x="518"/>
<glyph glyph-name="U" unicode="U" d="M523 227v439h68v-435q0 -104 -66.5 -173.5t-187.5 -69.5t-187.5 69.5t-66.5 173.5v435h68v-439q0 -84 48.5 -133.5t137.5 -49.5t137.5 49.5t48.5 133.5z" horiz-adv-x="674"/>
<glyph glyph-name="V" unicode="V" d="M288 83l206 583h67l-239 -666h-68l-239 666h67z" horiz-adv-x="576"/>
<glyph glyph-name="W" unicode="W" d="M502 666l168 -572l157 572h68l-191 -666h-67l-177 602l-177 -602h-67l-191 666h68l157 -572l168 572h84z" horiz-adv-x="920"/>
<glyph glyph-name="X" unicode="X" d="M295 389l183 277h75l-223 -331l227 -335h-76l-186 282l-186 -282h-76l227 335l-223 331h75z" horiz-adv-x="590"/>
<glyph glyph-name="Y" unicode="Y" d="M226 0v269l-218 397h72l180 -335l180 335h72l-218 -397v-269h-68z" horiz-adv-x="520"/>
<glyph glyph-name="Z" unicode="Z" d="M67 610v56h418v-56l-358 -554h364v-56h-436v56l358 554h-346z" horiz-adv-x="539"/>
<glyph glyph-name="bracketleft" unicode="[" d="M291 -176h-186v912h186v-56h-119v-801h119v-55z" horiz-adv-x="356"/>
<glyph glyph-name="backslash" unicode="\" d="M106 685l252 -765l-56 -20l-252 766z" horiz-adv-x="413"/>
<glyph glyph-name="bracketright" unicode="]" d="M251 -176h-186v55h119v801h-119v56h186v-912z" horiz-adv-x="356"/>
<glyph glyph-name="asciicircum" unicode="^" d="M280 666l155 -321l-51 -24l-134 288l-134 -288l-51 24l155 321h60z" horiz-adv-x="500"/>
<glyph glyph-name="underscore" unicode="_" d="M407 -250h-409v36h409v-36z" horiz-adv-x="405"/>
<glyph glyph-name="grave" unicode="`" d="M269 554h-57l-92 156h80z" horiz-adv-x="389"/>
<glyph glyph-name="a" unicode="a" d="M354 0v65q-68 -75 -165 -75q-64 0 -98.5 35t-34.5 94q0 65 45 99t121 38q43 3 131 5v31q0 72 -29.5 105.5t-91.5 33.5q-71 0 -126 -34l-17 51q63 39 152 39q81 0 130 -48.5t49 -143.5v-295h-66zM204 42q84 0 149 76v95q-54 -1 -123 -7q-108 -12 -108 -87q0 -77 82 -77z " horiz-adv-x="493"/>
<glyph glyph-name="b" unicode="b" d="M80 21v685h67v-275q22 24 60 40t82 16q91 0 144.5 -68.5t53.5 -175.5q0 -113 -65 -183t-180 -70q-90 0 -162 31zM274 432q-69 0 -127 -52v-320q38 -15 95 -15q86 0 132 52t46 144q0 84 -37 137.5t-109 53.5z" horiz-adv-x="532"/>
<glyph glyph-name="c" unicode="c" d="M275 486q75 0 129 -26l-9 -53q-56 24 -115 24q-85 0 -127.5 -51.5t-42.5 -141.5t42.5 -141.5t127.5 -51.5q58 0 114 24l10 -53q-54 -26 -129 -26q-114 0 -173 70.5t-59 177.5t59 177.5t173 70.5z" horiz-adv-x="446"/>
<glyph glyph-name="d" unicode="d" d="M452 706v-706h-63v69q-60 -79 -160 -79q-85 0 -134.5 68.5t-49.5 176.5q0 116 66.5 184t174.5 68q51 0 99 -14v233h67zM247 45q73 0 138 76v296q-37 15 -93 15q-81 0 -130.5 -50.5t-49.5 -146.5q0 -190 135 -190z" horiz-adv-x="532"/>
<glyph glyph-name="e" unicode="e" d="M255 487q89 0 133.5 -55t44.5 -143q0 -31 -6 -66h-314q2 -180 165 -180q75 0 139 31l11 -50q-70 -34 -157 -34q-110 0 -168 69t-58 179t56.5 179.5t153.5 69.5zM252 436q-62 0 -99.5 -48t-39.5 -112h256q6 72 -24 116t-93 44z" horiz-adv-x="478"/>
<glyph glyph-name="f" unicode="f" d="M186 0h-67v422h-87v55h87v29q0 210 176 210q45 0 77 -12l-7 -54q-24 10 -64 10q-62 0 -88.5 -36t-26.5 -116v-31h145v-55h-145v-422z" horiz-adv-x="344"/>
<glyph glyph-name="g" unicode="g" d="M238 164q-21 0 -39 3q-24 -20 -24 -44q0 -37 59 -42l94 -8q157 -14 157 -118q0 -76 -78 -123.5t-182 -47.5q-89 0 -144.5 33t-55.5 92q0 52 43.5 84.5t96.5 45.5q-54 21 -54 70q0 46 51 68q-49 18 -78 56t-29 92q0 71 52 116.5t131 45.5q37 0 67 -10h178v-53h-99 q38 -38 38 -99q0 -68 -52 -114.5t-132 -46.5zM310 21l-88 7q-62 -22 -97.5 -47.5t-35.5 -65.5q0 -82 136 -82q78 0 137 33t59 82q0 36 -28.5 52.5t-82.5 20.5zM238 214q54 0 88.5 29.5t34.5 81.5q0 53 -34 82.5t-89 29.5t-88.5 -28.5t-33.5 -83.5t33 -83t89 -28z" horiz-adv-x="500"/>
<glyph glyph-name="h" unicode="h" d="M147 0h-67v706h67v-294q58 75 154 75q83 0 125 -66.5t42 -167.5v-253h-67v248q0 183 -120 183q-75 0 -134 -74v-357z" horiz-adv-x="543"/>
<glyph glyph-name="i" unicode="i" d="M147 0h-67v477h67v-477zM67 622q0 20 13 33.5t33 13.5q21 0 34 -13.5t13 -33.5q0 -19 -13 -32.5t-34 -13.5q-20 0 -33 13.5t-13 32.5z" horiz-adv-x="227"/>
<glyph glyph-name="j" unicode="j" d="M26 -216l-48 37q56 64 81.5 129t25.5 153v374h67v-364q0 -199 -126 -329zM72 622q0 20 13 33.5t33 13.5q21 0 34 -13.5t13 -33.5q0 -19 -13 -32.5t-34 -13.5q-20 0 -33 13.5t-13 32.5z" horiz-adv-x="230"/>
<glyph glyph-name="k" unicode="k" d="M147 0h-67v706h67v-456l207 227h82l-215 -234l238 -243h-85l-227 236v-236z" horiz-adv-x="473"/>
<glyph glyph-name="l" unicode="l" d="M145 706v-592q0 -33 12 -50.5t44 -17.5q28 0 46 6l3 -50q-27 -10 -65 -10q-54 0 -80.5 32t-26.5 86v596h67z" horiz-adv-x="275"/>
<glyph glyph-name="m" unicode="m" d="M592 431q-41 0 -73.5 -22t-67.5 -62q11 -38 11 -94v-253h-67v248q0 183 -118 183q-71 0 -130 -74v-357h-67v477h63v-69q24 36 65.5 57.5t89.5 21.5q93 0 137 -93q68 93 174 93q85 0 126.5 -65t41.5 -169v-253h-67v248q0 183 -118 183z" horiz-adv-x="852"/>
<glyph glyph-name="n" unicode="n" d="M147 0h-67v477h63v-69q60 79 158 79q83 0 125 -66.5t42 -167.5v-253h-67v248q0 183 -120 183q-75 0 -134 -74v-357z" horiz-adv-x="543"/>
<glyph glyph-name="o" unicode="o" d="M493 238q0 -104 -60 -176t-164 -72t-164 72t-60 176t60 176.5t164 72.5t164 -72.5t60 -176.5zM426 238q0 85 -41 140t-116 55t-116 -55t-41 -140t41 -139.5t116 -54.5t116 54.5t41 139.5z" horiz-adv-x="538"/>
<glyph glyph-name="p" unicode="p" d="M80 -206v683h63v-66q65 76 158 76q90 0 138 -68.5t48 -176.5q0 -116 -65.5 -184t-175.5 -68q-51 0 -99 14v-210h-67zM285 432q-73 0 -138 -76v-296q37 -15 93 -15q88 0 134 51t46 146q0 88 -34 139t-101 51z" horiz-adv-x="532"/>
<glyph glyph-name="q" unicode="q" d="M452 456v-662h-67v252q-54 -56 -142 -56q-91 0 -144.5 69.5t-53.5 174.5q0 114 65 183.5t180 69.5q95 0 162 -31zM258 45q72 0 127 52v320q-40 15 -95 15q-86 0 -132 -52.5t-46 -143.5q0 -86 36.5 -138.5t109.5 -52.5z" horiz-adv-x="531"/>
<glyph glyph-name="r" unicode="r" d="M334 477v-55h-19q-117 0 -168 -94v-328h-67v477h63v-95q19 46 60.5 73t97.5 27q18 0 33 -5z" horiz-adv-x="348"/>
<glyph glyph-name="s" unicode="s" d="M378 130q0 -63 -50.5 -101.5t-129.5 -38.5t-142 28l12 54q63 -28 129 -28q50 0 82.5 21t32.5 59q0 23 -14.5 40.5t-32 27.5t-46.5 23q-8 3 -12 5q-31 13 -50.5 23t-44 27.5t-37 40.5t-12.5 51q0 61 45 93t115 32q75 0 136 -32l-13 -54q-62 32 -123 32q-94 0 -94 -65 q0 -14 4.5 -25.5t18 -21.5t20 -14t29.5 -14.5t27 -12.5q6 -3 29 -14t34 -17t31 -19.5t30 -26.5t18 -32t8 -41z" horiz-adv-x="424"/>
<glyph glyph-name="t" unicode="t" d="M25 422v55h87v127h67v-127h162v-55h-162v-265q0 -59 16.5 -85.5t63.5 -26.5q39 0 79 14l6 -51q-40 -18 -97 -18q-135 0 -135 168v264h-87z" horiz-adv-x="380"/>
<glyph glyph-name="u" unicode="u" d="M388 477h67v-477h-63v69q-60 -79 -158 -79q-81 0 -122 66.5t-41 167.5v253h67v-248q0 -90 26 -136.5t90 -46.5q75 0 134 74v357z" horiz-adv-x="535"/>
<glyph glyph-name="v" unicode="v" d="M192 0l-172 477h70l137 -406l137 406h70l-172 -477h-70z" horiz-adv-x="454"/>
<glyph glyph-name="w" unicode="w" d="M407 477l130 -393l109 393h67l-144 -477h-63l-137 416l-137 -416h-63l-144 477h67l109 -393l130 393h76z" horiz-adv-x="738"/>
<glyph glyph-name="x" unicode="x" d="M241 288l136 189h75l-176 -236l180 -241h-75l-140 193l-140 -193h-75l180 241l-176 236h75z" horiz-adv-x="482"/>
<glyph glyph-name="y" unicode="y" d="M183 -206h-66l72 203l-172 480h70l136 -406l134 406h69z" horiz-adv-x="443"/>
<glyph glyph-name="z" unicode="z" d="M400 0h-340v55l262 367h-249v55h321v-55l-262 -367h268v-55z" horiz-adv-x="445"/>
<glyph glyph-name="braceleft" unicode="{" d="M226 145v-153q0 -61 20.5 -86.5t72.5 -25.5h24v-56h-25q-81 0 -120 40t-39 130v160q0 52 -20 75.5t-67 23.5h-22v54h22q47 0 67 23.5t20 75.5v160q0 90 39 130t120 40h25v-56h-24q-52 0 -72.5 -26.5t-20.5 -85.5v-153q0 -55 -21.5 -88t-74.5 -47q53 -14 74.5 -47 t21.5 -88z" horiz-adv-x="398"/>
<glyph glyph-name="bar" unicode="|" d="M156 -250h-56v1000h56v-1000z" horiz-adv-x="256"/>
<glyph glyph-name="braceright" unicode="}" d="M172 -8v153q0 55 21.5 88t74.5 47q-53 14 -74.5 47t-21.5 88v153q0 59 -20.5 85.5t-72.5 26.5h-24v56h25q81 0 120 -40t39 -130v-160q0 -52 20 -75.5t67 -23.5h22v-54h-22q-47 0 -67 -23.5t-20 -75.5v-160q0 -90 -39 -130t-120 -40h-25v56h24q52 0 72.5 25.5t20.5 86.5z " horiz-adv-x="398"/>
<glyph glyph-name="asciitilde" unicode="~" d="M463 410l47 -24q-25 -60 -52.5 -85.5t-69.5 -25.5q-7 0 -14.5 1t-12.5 2t-14 4.5t-12.5 4.5t-14 6.5t-12.5 6.5l-14 7t-13 7q-5 2 -18.5 9.5t-20 10.5t-17 7t-19 6t-16.5 2q-11 0 -19.5 -3t-14 -6t-12 -12.5t-9.5 -15t-10.5 -21t-11.5 -23.5l-48 23q22 62 50.5 88 t75.5 26q8 0 15.5 -1t13.5 -2t14 -4t12.5 -4.5t13.5 -6t12.5 -6.5t14 -7.5t14.5 -7.5q5 -3 19 -10.5t19 -10t15 -7t18.5 -6t17.5 -1.5q23 0 37 16.5t36 62.5z" horiz-adv-x="570"/>
<glyph glyph-name="uni00A0" unicode=" " horiz-adv-x="200"/>
<glyph glyph-name="exclamdown" unicode="¡" d="M169 311l15 -292v-206h-70v206l15 292h40zM100 438q0 21 14 35t35 14t35 -14t14 -35t-14 -35t-35 -14t-35 14t-14 35z" horiz-adv-x="298"/>
<glyph glyph-name="cent" unicode="¢" d="M255 568v119h61v-116q69 -6 107 -24l-10 -53q-53 21 -110 21q-82 0 -124.5 -49t-42.5 -133t42.5 -133.5t124.5 -49.5q58 0 110 21l10 -52q-42 -19 -107 -24v-117h-61v120q-89 14 -137 78t-48 157t48 156.5t137 78.5z" horiz-adv-x="493"/>
<glyph glyph-name="sterling" unicode="£" d="M408 332v-54h-172q-6 -131 -110 -223h324v-55h-381l-14 50q104 98 114 228h-107v54h109v118q0 109 47.5 168.5t139.5 59.5q72 0 122 -26l-12 -53q-51 23 -105 23q-65 0 -95 -42.5t-30 -130.5v-117h170z" horiz-adv-x="530"/>
<glyph glyph-name="currency" unicode="¤" d="M424 504l88 87l40 -38l-85 -85q53 -56 53 -135t-53 -137l85 -84l-40 -38l-88 87q-47 -32 -110 -32q-64 0 -111 32l-88 -87l-40 38l84 84q-52 60 -52 137t52 135l-84 85l40 38l88 -87q50 32 111 32q60 0 110 -32zM165 333q0 -65 41 -110.5t108 -45.5q66 0 107 45.5 t41 110.5t-41 110.5t-107 45.5q-67 0 -108 -45.5t-41 -110.5z" horiz-adv-x="627"/>
<glyph glyph-name="yen" unicode="¥" d="M267 333l142 333h71l-130 -288h109v-50h-131l-27 -59v-61h158v-49h-158v-159h-67v159h-158v49h158v61l-27 59h-131v50h109l-130 288h71z" horiz-adv-x="535"/>
<glyph glyph-name="brokenbar" unicode="¦" d="M156 750v-381h-56v381h56zM156 -250h-56v381h56v-381z" horiz-adv-x="256"/>
<glyph glyph-name="section" unicode="§" d="M363 716q76 0 118 -18l-7 -45q-51 16 -100 16q-54 0 -86 -28t-32 -85q0 -49 26 -86.5t86 -90.5q42 -37 65 -59t54 -59.5t45 -77t14 -83.5q0 -110 -88 -178t-207 -68q-72 0 -132 20l8 45q60 -19 118 -19q59 0 90 30.5t31 85.5q0 24 -7 45t-26.5 44.5t-31 36t-44.5 42 t-44 39.5q-69 63 -103.5 120.5t-34.5 126.5q0 113 80 179.5t208 66.5zM252 659q-122 -62 -122 -186q0 -61 29 -106.5t93 -106.5q10 -10 44.5 -41t49 -46.5t36 -43t30.5 -53.5t9 -55q0 -60 -44 -104q114 63 114 175q0 71 -37 122t-117 121q-70 61 -103 108.5t-33 106.5 q0 69 51 109z" horiz-adv-x="606"/>
<glyph glyph-name="dieresis" unicode="¨" d="M214 628q0 -21 -13.5 -34.5t-34.5 -13.5q-20 0 -33 13.5t-13 34.5q0 20 13 33t33 13q21 0 34.5 -13t13.5 -33zM392 628q0 -21 -13.5 -34.5t-34.5 -13.5q-20 0 -33 13.5t-13 34.5q0 20 13 33t33 13q21 0 34.5 -13t13.5 -33z" horiz-adv-x="512"/>
<glyph glyph-name="copyright" unicode="©" d="M762 333q0 -144 -97 -244.5t-249 -100.5t-249 100.5t-97 244.5q0 145 97 245t249 100t249 -100t97 -245zM105 333q0 -132 86.5 -223.5t224.5 -91.5t224.5 91.5t86.5 223.5t-86.5 223.5t-224.5 91.5t-224.5 -91.5t-86.5 -223.5zM438 529q58 0 99 -18l-8 -43q-41 15 -87 15 q-70 0 -106.5 -39t-36.5 -111t36.5 -111t106.5 -39q46 0 87 15l8 -43q-41 -18 -99 -18q-91 0 -142 54.5t-51 141.5t51 141.5t142 54.5z" horiz-adv-x="832"/>
<glyph glyph-name="ordfeminine" unicode="ª" d="M70 203v49h307v-49h-307zM297 331v42q-50 -50 -117 -50q-46 0 -72.5 24.5t-26.5 66.5q0 88 114 100q53 5 101 5v17q0 49 -20.5 70.5t-62.5 21.5q-52 0 -95 -24l-11 45q49 27 115 27q60 0 96.5 -35t36.5 -102v-208h-58zM193 367q53 0 103 48v65q-13 -1 -41.5 -3.5 t-42.5 -4.5q-72 -8 -72 -58q0 -47 53 -47z" horiz-adv-x="447"/>
<glyph glyph-name="guillemotleft" unicode="«" d="M261 410l-135 -170l135 -170l-44 -35l-162 205l162 205zM476 410l-135 -170l135 -170l-44 -35l-162 205l162 205z" horiz-adv-x="551"/>
<glyph glyph-name="logicalnot" unicode="¬" d="M531 89h-59v209h-392v51h451v-260z" horiz-adv-x="611"/>
<glyph glyph-name="registered" unicode="®" d="M65 462q0 91 60.5 153.5t157.5 62.5t157.5 -62.5t60.5 -153.5q0 -90 -61 -153t-157 -63t-157 63t-61 153zM472 462q0 80 -52.5 135.5t-136.5 55.5t-136.5 -55.5t-52.5 -135.5q0 -81 52.5 -136t136.5 -55t136.5 55t52.5 136zM365 516q0 -47 -50 -63l75 -94h-48l-66 86h-20 v-86h-38v219h70q33 0 55 -17t22 -45zM327 514q0 33 -44 33h-27v-71h14q57 0 57 38z" horiz-adv-x="566"/>
<glyph glyph-name="macron" unicode="¯" d="M120 592v54h258v-54h-258z" horiz-adv-x="498"/>
<glyph glyph-name="degree" unicode="°" d="M75 557q0 50 34 85.5t91 35.5t91 -35.5t34 -85.5q0 -51 -34 -86.5t-91 -35.5t-91 35.5t-34 86.5zM277 557q0 33 -20 57t-57 24t-57 -24t-20 -57t20 -57.5t57 -24.5t57 24.5t20 57.5z" horiz-adv-x="400"/>
<glyph glyph-name="plusminus" unicode="±" d="M531 322h-196v-186h-59v186h-196v50h196v185h59v-185h196v-50zM80 0v51h451v-51h-451z" horiz-adv-x="611"/>
<glyph glyph-name="twosuperior" unicode="²" d="M77 746l-15 45q46 30 112 30q62 0 96.5 -32t34.5 -84q0 -29 -8 -53.5t-27.5 -47.5t-34.5 -37t-45 -39q-57 -46 -76 -60h205v-48h-274l-12 39q80 65 120 101q31 28 47 44.5t31 43t15 53.5q0 34 -20.5 53t-58.5 19q-41 0 -90 -27z" horiz-adv-x="354"/>
<glyph glyph-name="threesuperior" unicode="³" d="M303 524q0 -51 -41.5 -82.5t-108.5 -31.5q-65 0 -108 24l11 45q45 -22 94 -22q45 0 69.5 17.5t24.5 49.5q0 35 -30 52.5t-78 17.5h-47v49h41q49 0 77 20.5t28 51.5q0 58 -78 58q-45 0 -88 -22l-12 45q44 25 109 25q58 0 92.5 -26t34.5 -73q0 -72 -84 -100q94 -24 94 -98z " horiz-adv-x="348"/>
<glyph glyph-name="acute" unicode="´" d="M177 554h-57l69 156h80z" horiz-adv-x="389"/>
<glyph glyph-name="mu" unicode="µ" d="M80 -206v683h67v-248q0 -89 26 -136.5t90 -47.5q72 0 134 74v358h67v-352q0 -40 15 -61.5t55 -21.5h19v-41q-26 -7 -47 -7q-80 0 -102 79q-63 -83 -157 -83q-45 0 -76 26.5t-43 65.5q19 -84 19 -172v-116h-67z" horiz-adv-x="596"/>
<glyph glyph-name="paragraph" unicode="¶" d="M475 -140h-59v755h-122v-420q-106 0 -170 64t-64 170q0 110 68 173.5t165 63.5h182v-806z" horiz-adv-x="560"/>
<glyph glyph-name="periodcentered" unicode="·" d="M75 250q0 21 14 35t35 14t35 -14t14 -35t-14 -35t-35 -14t-35 14t-14 35z"/>
<glyph glyph-name="cedilla" unicode="¸" d="M269 -124q0 -72 -134 -92l-12 44q84 16 84 48q0 14 -14 23.5t-30 14t-43 9.5l31 77h51l-18 -50q33 -5 59 -23t26 -51z" horiz-adv-x="389"/>
<glyph glyph-name="onesuperior" unicode="¹" d="M185 420h-59v331l-89 -29l-14 47l120 42h42v-391z" horiz-adv-x="255"/>
<glyph glyph-name="ordmasculine" unicode="º" d="M85 203v49h307v-49h-307zM406 499q0 -73 -45 -124.5t-123 -51.5t-123 51.5t-45 124.5q0 74 45 125.5t123 51.5t123 -51.5t45 -125.5zM128 499q0 -56 29 -92.5t81 -36.5t81 36.5t29 92.5t-29 93t-81 37t-81 -37t-29 -93z" horiz-adv-x="476"/>
<glyph glyph-name="guillemotright" unicode="»" d="M425 240l-135 170l44 35l162 -205l-162 -205l-44 35zM210 240l-135 170l44 35l162 -205l-162 -205l-44 35z" horiz-adv-x="551"/>
<glyph glyph-name="onequarter" unicode="¼" d="M186 11l354 667l44 -23l-355 -667zM222 275h-59v331l-89 -29l-14 47l120 42h42v-391zM749 106h-59v-106h-56v106h-194l-10 39l203 246h57v-239h59v-46zM634 152v171l-138 -171h138z" horiz-adv-x="804"/>
<glyph glyph-name="onehalf" unicode="½" d="M186 11l354 667l44 -23l-355 -667zM222 275h-59v331l-89 -29l-14 47l120 42h42v-391zM541 326l-15 45q46 30 112 30q62 0 96.5 -32t34.5 -84q0 -29 -8 -53.5t-27.5 -47.5t-34.5 -37t-45 -39q-57 -46 -76 -60h205v-48h-274l-12 39q80 65 120 101q31 28 47 44.5t31 43 t15 53.5q0 34 -20.5 53t-58.5 19q-41 0 -90 -27z" horiz-adv-x="858"/>
<glyph glyph-name="threequarters" unicode="¾" d="M241 11l354 667l44 -23l-355 -667zM804 106h-59v-106h-56v106h-194l-10 39l203 246h57v-239h59v-46zM689 152v171l-138 -171h138zM333 379q0 -51 -41.5 -82.5t-108.5 -31.5q-65 0 -108 24l11 45q45 -22 94 -22q45 0 69.5 17.5t24.5 49.5q0 35 -30 52.5t-78 17.5h-47v49 h41q49 0 77 20.5t28 51.5q0 58 -78 58q-45 0 -88 -22l-12 45q44 25 109 25q58 0 92.5 -26t34.5 -73q0 -71 -84 -100q94 -24 94 -98z" horiz-adv-x="859"/>
<glyph glyph-name="questiondown" unicode="¿" d="M60 -26q0 48 21 94t61 86t75 68t84 61l35 -47q-49 -35 -76.5 -57t-63.5 -57t-52.5 -71t-16.5 -75q0 -57 33 -87.5t90 -30.5q60 0 128 36l19 -53q-64 -40 -152 -40q-85 0 -135 46t-50 127zM339 438q0 -21 -14 -35t-35 -14t-35 14t-14 35t14 35t35 14t35 -14t14 -35z" horiz-adv-x="452"/>
<glyph glyph-name="Agrave" unicode="À" d="M360 666l264 -666h-71l-65 170h-322l-65 -170h-71l264 666h66zM467 226l-140 370l-140 -370h280zM350 730h-59l-108 111h84z" horiz-adv-x="654"/>
<glyph glyph-name="Aacute" unicode="Á" d="M360 666l264 -666h-71l-65 170h-322l-65 -170h-71l264 666h66zM467 226l-140 370l-140 -370h280zM351 730h-59l83 111h84z" horiz-adv-x="654"/>
<glyph glyph-name="Acircumflex" unicode="Â" d="M360 666l264 -666h-71l-65 170h-322l-65 -170h-71l264 666h66zM467 226l-140 370l-140 -370h280zM363 841l92 -111h-64l-64 77l-64 -77h-64l92 111h72z" horiz-adv-x="654"/>
<glyph glyph-name="Atilde" unicode="Ã" d="M360 666l264 -666h-71l-65 170h-322l-65 -170h-71l264 666h66zM467 226l-140 370l-140 -370h280zM398 740q-22 0 -79 26q-40 19 -57 19q-13 0 -22.5 -7.5t-14 -16t-14.5 -28.5l-42 19q15 46 35.5 66t56.5 20q30 0 78 -23q42 -22 59 -22q11 0 19.5 6.5t13 13.5t12.5 25 l42 -20q-19 -41 -37.5 -59.5t-49.5 -18.5z" horiz-adv-x="654"/>
<glyph glyph-name="Adieresis" unicode="Ä" d="M360 666l264 -666h-71l-65 170h-322l-65 -170h-71l264 666h66zM467 226l-140 370l-140 -370h280zM279 789q0 -20 -12.5 -32.5t-33.5 -12.5t-33.5 12.5t-12.5 32.5t12.5 32.5t33.5 12.5t33.5 -12.5t12.5 -32.5zM466 789q0 -20 -12.5 -32.5t-33.5 -12.5t-33.5 12.5 t-12.5 32.5t12.5 32.5t33.5 12.5t33.5 -12.5t12.5 -32.5z" horiz-adv-x="654"/>
<glyph glyph-name="Aring" unicode="Å" d="M327 797q40 0 62 -23.5t22 -56.5q0 -48 -43 -71l256 -646h-71l-65 170h-322l-65 -170h-71l256 646q-43 22 -43 71q0 33 22 56.5t62 23.5zM467 226l-140 370l-140 -370h280zM371 717q0 20 -12 33t-32 13q-21 0 -33 -12.5t-12 -33.5t12 -33.5t33 -12.5q20 0 32 13t12 33z " horiz-adv-x="654"/>
<glyph glyph-name="AE" unicode="Æ" d="M807 666v-56h-330l32 -241h270v-56h-263l33 -257h261v-56h-317l-21 170h-294l-95 -170h-73l383 666h414zM418 600l-208 -375h254z" horiz-adv-x="866"/>
<glyph glyph-name="Ccedilla" unicode="Ç" d="M458 -124q0 -72 -134 -92l-12 44q84 16 84 48q0 14 -14 23.5t-30 14t-43 9.5l27 68q-136 14 -214 108.5t-78 233.5q0 151 91.5 248t248.5 97q101 0 170 -30l-12 -54q-75 27 -151 27q-135 0 -207 -76t-72 -212t72 -212t207 -76q76 0 151 27l12 -54q-66 -28 -168 -30 l-13 -38q33 -5 59 -23t26 -51z" horiz-adv-x="600"/>
<glyph glyph-name="Egrave" unicode="È" d="M85 0v666h356v-56h-288v-241h276v-56h-276v-257h291v-56h-359zM316 730h-59l-108 111h84z" horiz-adv-x="500"/>
<glyph glyph-name="Eacute" unicode="É" d="M85 0v666h356v-56h-288v-241h276v-56h-276v-257h291v-56h-359zM262 730h-59l83 111h84z" horiz-adv-x="500"/>
<glyph glyph-name="Ecircumflex" unicode="Ê" d="M85 0v666h356v-56h-288v-241h276v-56h-276v-257h291v-56h-359zM303 841l92 -111h-64l-64 77l-64 -77h-64l92 111h72z" horiz-adv-x="500"/>
<glyph glyph-name="Edieresis" unicode="Ë" d="M85 0v666h356v-56h-288v-241h276v-56h-276v-257h291v-56h-359zM221 789q0 -20 -12.5 -32.5t-33.5 -12.5t-33.5 12.5t-12.5 32.5t12.5 32.5t33.5 12.5t33.5 -12.5t12.5 -32.5zM408 789q0 -20 -12.5 -32.5t-33.5 -12.5t-33.5 12.5t-12.5 32.5t12.5 32.5t33.5 12.5 t33.5 -12.5t12.5 -32.5z" horiz-adv-x="500"/>
<glyph glyph-name="Igrave" unicode="Ì" d="M158 666v-666h-68v666h68zM160 730h-59l-108 111h84z"/>
<glyph glyph-name="Iacute" unicode="Í" d="M158 666v-666h-68v666h68zM146 730h-59l83 111h84z"/>
<glyph glyph-name="Icircumflex" unicode="Î" d="M158 666v-666h-68v666h68zM160 841l92 -111h-64l-64 77l-64 -77h-64l92 111h72z"/>
<glyph glyph-name="Idieresis" unicode="Ï" d="M158 666v-666h-68v666h68zM77 789q0 -20 -12.5 -32.5t-33.5 -12.5t-33.5 12.5t-12.5 32.5t12.5 32.5t33.5 12.5t33.5 -12.5t12.5 -32.5zM264 789q0 -20 -12.5 -32.5t-33.5 -12.5t-33.5 12.5t-12.5 32.5t12.5 32.5t33.5 12.5t33.5 -12.5t12.5 -32.5z"/>
<glyph glyph-name="Eth" unicode="Ð" d="M50 306v55h75v305h165q168 0 273.5 -93t105.5 -240t-105.5 -240t-273.5 -93h-165v306h-75zM193 56h98q134 0 222 73.5t88 203.5q0 129 -88.5 203t-221.5 74h-98v-249h195v-55h-195v-250z" horiz-adv-x="711"/>
<glyph glyph-name="Ntilde" unicode="Ñ" d="M610 0h-65l-395 557v-557h-65v666h65l395 -557v557h65v-666zM421 740q-22 0 -79 26q-40 19 -57 19q-13 0 -22.5 -7.5t-14 -16t-14.5 -28.5l-42 19q15 46 35.5 66t56.5 20q30 0 78 -23q42 -22 59 -22q11 0 19.5 6.5t13 13.5t12.5 25l42 -20q-19 -41 -37.5 -59.5 t-49.5 -18.5z" horiz-adv-x="695"/>
<glyph glyph-name="Ograve" unicode="Ò" d="M365 -12q-98 0 -172 48.5t-110.5 126t-36.5 170.5t36.5 170.5t110.5 126t172 48.5t172 -48.5t110.5 -126t36.5 -170.5t-36.5 -170.5t-110.5 -126t-172 -48.5zM365 44q116 0 183.5 82.5t67.5 206.5q0 123 -67.5 206t-183.5 83q-115 0 -183 -83t-68 -206 q0 -124 67.5 -206.5t183.5 -82.5zM410 730h-59l-108 111h84z" horiz-adv-x="730"/>
<glyph glyph-name="Oacute" unicode="Ó" d="M365 -12q-98 0 -172 48.5t-110.5 126t-36.5 170.5t36.5 170.5t110.5 126t172 48.5t172 -48.5t110.5 -126t36.5 -170.5t-36.5 -170.5t-110.5 -126t-172 -48.5zM365 44q116 0 183.5 82.5t67.5 206.5q0 123 -67.5 206t-183.5 83q-115 0 -183 -83t-68 -206 q0 -124 67.5 -206.5t183.5 -82.5zM385 730h-59l83 111h84z" horiz-adv-x="730"/>
<glyph glyph-name="Ocircumflex" unicode="Ô" d="M365 -12q-98 0 -172 48.5t-110.5 126t-36.5 170.5t36.5 170.5t110.5 126t172 48.5t172 -48.5t110.5 -126t36.5 -170.5t-36.5 -170.5t-110.5 -126t-172 -48.5zM365 44q116 0 183.5 82.5t67.5 206.5q0 123 -67.5 206t-183.5 83q-115 0 -183 -83t-68 -206 q0 -124 67.5 -206.5t183.5 -82.5zM401 841l92 -111h-64l-64 77l-64 -77h-64l92 111h72z" horiz-adv-x="730"/>
<glyph glyph-name="Otilde" unicode="Õ" d="M365 -12q-98 0 -172 48.5t-110.5 126t-36.5 170.5t36.5 170.5t110.5 126t172 48.5t172 -48.5t110.5 -126t36.5 -170.5t-36.5 -170.5t-110.5 -126t-172 -48.5zM365 44q116 0 183.5 82.5t67.5 206.5q0 123 -67.5 206t-183.5 83q-115 0 -183 -83t-68 -206 q0 -124 67.5 -206.5t183.5 -82.5zM443 740q-22 0 -79 26q-40 19 -57 19q-13 0 -22.5 -7.5t-14 -16t-14.5 -28.5l-42 19q15 46 35.5 66t56.5 20q30 0 78 -23q42 -22 59 -22q11 0 19.5 6.5t13 13.5t12.5 25l42 -20q-19 -41 -37.5 -59.5t-49.5 -18.5z" horiz-adv-x="730"/>
<glyph glyph-name="Odieresis" unicode="Ö" d="M365 -12q-98 0 -172 48.5t-110.5 126t-36.5 170.5t36.5 170.5t110.5 126t172 48.5t172 -48.5t110.5 -126t36.5 -170.5t-36.5 -170.5t-110.5 -126t-172 -48.5zM365 44q116 0 183.5 82.5t67.5 206.5q0 123 -67.5 206t-183.5 83q-115 0 -183 -83t-68 -206 q0 -124 67.5 -206.5t183.5 -82.5zM317 789q0 -20 -12.5 -32.5t-33.5 -12.5t-33.5 12.5t-12.5 32.5t12.5 32.5t33.5 12.5t33.5 -12.5t12.5 -32.5zM504 789q0 -20 -12.5 -32.5t-33.5 -12.5t-33.5 12.5t-12.5 32.5t12.5 32.5t33.5 12.5t33.5 -12.5t12.5 -32.5z" horiz-adv-x="730"/>
<glyph glyph-name="multiply" unicode="×" d="M285 360l162 163l39 -38l-163 -162l163 -162l-39 -39l-162 163l-162 -163l-38 39l162 162l-162 162l38 38z" horiz-adv-x="571"/>
<glyph glyph-name="Oslash" unicode="Ø" d="M50 -36l92 117q-92 98 -92 252q0 93 36.5 170.5t110.5 126t172 48.5q111 0 193 -64l91 116l35 -29l-92 -117q92 -98 92 -251q0 -93 -36.5 -170.5t-110.5 -126t-172 -48.5q-112 0 -193 62l-90 -114zM118 333q0 -125 64 -202l343 436q-64 55 -156 55q-115 0 -183 -83 t-68 -206zM369 44q116 0 183.5 82.5t67.5 206.5q0 121 -63 201l-343 -436q62 -54 155 -54z" horiz-adv-x="738"/>
<glyph glyph-name="Ugrave" unicode="Ù" d="M523 227v439h68v-435q0 -104 -66.5 -173.5t-187.5 -69.5t-187.5 69.5t-66.5 173.5v435h68v-439q0 -84 48.5 -133.5t137.5 -49.5t137.5 49.5t48.5 133.5zM399 730h-59l-108 111h84z" horiz-adv-x="674"/>
<glyph glyph-name="Uacute" unicode="Ú" d="M523 227v439h68v-435q0 -104 -66.5 -173.5t-187.5 -69.5t-187.5 69.5t-66.5 173.5v435h68v-439q0 -84 48.5 -133.5t137.5 -49.5t137.5 49.5t48.5 133.5zM353 730h-59l83 111h84z" horiz-adv-x="674"/>
<glyph glyph-name="Ucircumflex" unicode="Û" d="M523 227v439h68v-435q0 -104 -66.5 -173.5t-187.5 -69.5t-187.5 69.5t-66.5 173.5v435h68v-439q0 -84 48.5 -133.5t137.5 -49.5t137.5 49.5t48.5 133.5zM373 841l92 -111h-64l-64 77l-64 -77h-64l92 111h72z" horiz-adv-x="674"/>
<glyph glyph-name="Udieresis" unicode="Ü" d="M523 227v439h68v-435q0 -104 -66.5 -173.5t-187.5 -69.5t-187.5 69.5t-66.5 173.5v435h68v-439q0 -84 48.5 -133.5t137.5 -49.5t137.5 49.5t48.5 133.5zM289 789q0 -20 -12.5 -32.5t-33.5 -12.5t-33.5 12.5t-12.5 32.5t12.5 32.5t33.5 12.5t33.5 -12.5t12.5 -32.5z M476 789q0 -20 -12.5 -32.5t-33.5 -12.5t-33.5 12.5t-12.5 32.5t12.5 32.5t33.5 12.5t33.5 -12.5t12.5 -32.5z" horiz-adv-x="674"/>
<glyph glyph-name="Yacute" unicode="Ý" d="M226 0v269l-218 397h72l180 -335l180 335h72l-218 -397v-269h-68zM283 730h-59l83 111h84z" horiz-adv-x="520"/>
<glyph glyph-name="Thorn" unicode="Þ" d="M477 341q0 -94 -74 -149t-192 -55h-58v-137h-68v666h68v-135h81q105 0 174 -50t69 -140zM409 341q0 68 -51 101t-127 33h-78v-282h61q86 0 140.5 40t54.5 108z" horiz-adv-x="499"/>
<glyph glyph-name="germandbls" unicode="ß" d="M147 0h-67v486q0 113 57 171.5t153 58.5q70 0 119.5 -38t49.5 -102q0 -9 -1 -18t-2.5 -15.5t-5 -15.5t-5.5 -13.5t-7.5 -13.5t-7.5 -12t-9 -12t-8.5 -10.5t-10.5 -11.5l-8 -10q-3 -4 -15 -18.5t-15.5 -19.5t-10.5 -16t-9 -20t-2 -19t3.5 -18.5t12.5 -16.5t15.5 -12.5 t22.5 -15t23 -14.5q4 -3 25 -16t29 -19t24.5 -21t24 -27t14 -31t6.5 -40q0 -58 -45 -94t-119 -36q-68 0 -122 23l10 53q54 -22 110 -22q46 0 73 19.5t27 55.5q0 23 -15.5 44t-31.5 31.5t-45 27.5q-28 16 -42 25t-32 25t-26 34.5t-8 41.5q0 13 3.5 26t6.5 21.5t11.5 22 t11.5 17.5t15 18t12 15q5 6 17 20.5t16.5 21t11.5 18t9.5 23t2.5 24.5q0 39 -31 62t-78 23q-63 0 -100 -44t-37 -133v-483z" horiz-adv-x="577"/>
<glyph glyph-name="agrave" unicode="à" d="M354 0v65q-68 -75 -165 -75q-64 0 -98.5 35t-34.5 94q0 65 45 99t121 38q43 3 131 5v31q0 72 -29.5 105.5t-91.5 33.5q-71 0 -126 -34l-17 51q63 39 152 39q81 0 130 -48.5t49 -143.5v-295h-66zM204 42q84 0 149 76v95q-54 -1 -123 -7q-108 -12 -108 -87q0 -77 82 -77z M286 554h-57l-92 156h80z" horiz-adv-x="493"/>
<glyph glyph-name="aacute" unicode="á" d="M354 0v65q-68 -75 -165 -75q-64 0 -98.5 35t-34.5 94q0 65 45 99t121 38q43 3 131 5v31q0 72 -29.5 105.5t-91.5 33.5q-71 0 -126 -34l-17 51q63 39 152 39q81 0 130 -48.5t49 -143.5v-295h-66zM204 42q84 0 149 76v95q-54 -1 -123 -7q-108 -12 -108 -87q0 -77 82 -77z M253 554h-57l69 156h80z" horiz-adv-x="493"/>
<glyph glyph-name="acircumflex" unicode="â" d="M354 0v65q-68 -75 -165 -75q-64 0 -98.5 35t-34.5 94q0 65 45 99t121 38q43 3 131 5v31q0 72 -29.5 105.5t-91.5 33.5q-71 0 -126 -34l-17 51q63 39 152 39q81 0 130 -48.5t49 -143.5v-295h-66zM204 42q84 0 149 76v95q-54 -1 -123 -7q-108 -12 -108 -87q0 -77 82 -77z M285 710l107 -156h-64l-77 117l-77 -117h-64l107 156h68z" horiz-adv-x="493"/>
<glyph glyph-name="atilde" unicode="ã" d="M354 0v65q-68 -75 -165 -75q-64 0 -98.5 35t-34.5 94q0 65 45 99t121 38q43 3 131 5v31q0 72 -29.5 105.5t-91.5 33.5q-71 0 -126 -34l-17 51q63 39 152 39q81 0 130 -48.5t49 -143.5v-295h-66zM204 42q84 0 149 76v95q-54 -1 -123 -7q-108 -12 -108 -87q0 -77 82 -77z M320 575q-27 0 -75 27q-36 21 -54 21t-26 -9t-21 -37l-2 -4l-2 -4l-43 20q17 47 37 67.5t57 20.5q31 0 72 -23q44 -25 58 -25q11 0 19.5 7.5t12 14t12.5 25.5l42 -22q-19 -41 -38.5 -60t-48.5 -19z" horiz-adv-x="493"/>
<glyph glyph-name="adieresis" unicode="ä" d="M354 0v65q-68 -75 -165 -75q-64 0 -98.5 35t-34.5 94q0 65 45 99t121 38q43 3 131 5v31q0 72 -29.5 105.5t-91.5 33.5q-71 0 -126 -34l-17 51q63 39 152 39q81 0 130 -48.5t49 -143.5v-295h-66zM204 42q84 0 149 76v95q-54 -1 -123 -7q-108 -12 -108 -87q0 -77 82 -77z M202 628q0 -21 -13.5 -34.5t-34.5 -13.5q-20 0 -33 13.5t-13 34.5q0 20 13 33t33 13q21 0 34.5 -13t13.5 -33zM380 628q0 -21 -13.5 -34.5t-34.5 -13.5q-20 0 -33 13.5t-13 34.5q0 20 13 33t33 13q21 0 34.5 -13t13.5 -33z" horiz-adv-x="493"/>
<glyph glyph-name="aring" unicode="å" d="M354 0v65q-68 -75 -165 -75q-64 0 -98.5 35t-34.5 94q0 65 45 99t121 38q43 3 131 5v31q0 72 -29.5 105.5t-91.5 33.5q-71 0 -126 -34l-17 51q63 39 152 39q81 0 130 -48.5t49 -143.5v-295h-66zM204 42q84 0 149 76v95q-54 -1 -123 -7q-108 -12 -108 -87q0 -77 82 -77z M242 714q40 0 62 -24t22 -56t-22 -56t-62 -24t-62 24t-22 56t22 56t62 24zM286 634q0 20 -12 33t-32 13q-21 0 -33 -12.5t-12 -33.5t12 -33.5t33 -12.5q20 0 32 13t12 33z" horiz-adv-x="493"/>
<glyph glyph-name="ae" unicode="æ" d="M560 487q87 0 132.5 -54.5t45.5 -143.5q0 -26 -6 -66h-314q5 -180 167 -180q74 0 137 31l12 -50q-66 -34 -155 -34q-120 0 -179 82q-84 -82 -195 -82q-67 0 -108 37.5t-41 94.5q0 67 42 103t117 41q50 3 135 5v23q0 138 -120 138q-61 0 -125 -33l-15 52q63 36 147 36 q113 0 155 -93q57 93 168 93zM217 41q85 0 157 72q-19 40 -24 106q-108 -3 -116 -4q-58 -3 -85.5 -24t-27.5 -65q0 -40 25 -62.5t71 -22.5zM557 436q-63 0 -100 -47t-39 -113h256q6 68 -23.5 114t-93.5 46z" horiz-adv-x="780"/>
<glyph glyph-name="ccedilla" unicode="ç" d="M351 -124q0 -72 -134 -92l-12 44q84 16 84 48q0 14 -14 23.5t-30 14t-43 9.5l28 71q-92 14 -139.5 81.5t-47.5 162.5q0 107 59 177.5t173 70.5q75 0 129 -26l-9 -53q-56 24 -115 24q-85 0 -127.5 -51.5t-42.5 -141.5t42.5 -141.5t127.5 -51.5q58 0 114 24l10 -53 q-48 -24 -124 -26l-14 -40q33 -5 59 -23t26 -51z" horiz-adv-x="446"/>
<glyph glyph-name="egrave" unicode="è" d="M255 487q89 0 133.5 -55t44.5 -143q0 -31 -6 -66h-314q2 -180 165 -180q75 0 139 31l11 -50q-70 -34 -157 -34q-110 0 -168 69t-58 179t56.5 179.5t153.5 69.5zM252 436q-62 0 -99.5 -48t-39.5 -112h256q6 72 -24 116t-93 44zM283 554h-57l-92 156h80z" horiz-adv-x="478"/>
<glyph glyph-name="eacute" unicode="é" d="M255 487q89 0 133.5 -55t44.5 -143q0 -31 -6 -66h-314q2 -180 165 -180q75 0 139 31l11 -50q-70 -34 -157 -34q-110 0 -168 69t-58 179t56.5 179.5t153.5 69.5zM252 436q-62 0 -99.5 -48t-39.5 -112h256q6 72 -24 116t-93 44zM267 554h-57l69 156h80z" horiz-adv-x="478"/>
<glyph glyph-name="ecircumflex" unicode="ê" d="M255 487q89 0 133.5 -55t44.5 -143q0 -31 -6 -66h-314q2 -180 165 -180q75 0 139 31l11 -50q-70 -34 -157 -34q-110 0 -168 69t-58 179t56.5 179.5t153.5 69.5zM252 436q-62 0 -99.5 -48t-39.5 -112h256q6 72 -24 116t-93 44zM285 710l107 -156h-64l-77 117l-77 -117h-64 l107 156h68z" horiz-adv-x="478"/>
<glyph glyph-name="edieresis" unicode="ë" d="M255 487q89 0 133.5 -55t44.5 -143q0 -31 -6 -66h-314q2 -180 165 -180q75 0 139 31l11 -50q-70 -34 -157 -34q-110 0 -168 69t-58 179t56.5 179.5t153.5 69.5zM252 436q-62 0 -99.5 -48t-39.5 -112h256q6 72 -24 116t-93 44zM207 628q0 -21 -13.5 -34.5t-34.5 -13.5 q-20 0 -33 13.5t-13 34.5q0 20 13 33t33 13q21 0 34.5 -13t13.5 -33zM385 628q0 -21 -13.5 -34.5t-34.5 -13.5q-20 0 -33 13.5t-13 34.5q0 20 13 33t33 13q21 0 34.5 -13t13.5 -33z" horiz-adv-x="478"/>
<glyph glyph-name="igrave" unicode="ì" d="M147 0h-67v477h67v-477zM144 554h-57l-92 156h80z" horiz-adv-x="227"/>
<glyph glyph-name="iacute" unicode="í" d="M147 0h-67v477h67v-477zM138 554h-57l69 156h80z" horiz-adv-x="227"/>
<glyph glyph-name="icircumflex" unicode="î" d="M147 0h-67v477h67v-477zM148 710l107 -156h-64l-77 117l-77 -117h-64l107 156h68z" horiz-adv-x="227"/>
<glyph glyph-name="idieresis" unicode="ï" d="M147 0h-67v477h67v-477zM72 628q0 -21 -13.5 -34.5t-34.5 -13.5q-20 0 -33 13.5t-13 34.5q0 20 13 33t33 13q21 0 34.5 -13t13.5 -33zM250 628q0 -21 -13.5 -34.5t-34.5 -13.5q-20 0 -33 13.5t-13 34.5q0 20 13 33t33 13q21 0 34.5 -13t13.5 -33z" horiz-adv-x="227"/>
<glyph glyph-name="eth" unicode="ð" d="M170 549l89 65q-60 33 -155 51l14 51q103 -15 191 -65l88 66l26 -36l-76 -56q63 -44 104.5 -123t41.5 -186q0 -148 -58 -237t-169 -89q-105 0 -160.5 69t-55.5 170q0 108 58.5 168.5t154.5 60.5q89 0 160 -47q-28 118 -122 179l-104 -77zM115 228q0 -84 39.5 -134.5 t112.5 -50.5q80 0 120 68t40 153v87q-64 54 -149 54q-80 0 -121.5 -46t-41.5 -131z" horiz-adv-x="533"/>
<glyph glyph-name="ntilde" unicode="ñ" d="M147 0h-67v477h63v-69q60 79 158 79q83 0 125 -66.5t42 -167.5v-253h-67v248q0 183 -120 183q-75 0 -134 -74v-357zM341 575q-27 0 -75 27q-36 21 -54 21t-26 -9t-21 -37l-2 -4l-2 -4l-43 20q17 47 37 67.5t57 20.5q31 0 72 -23q44 -25 58 -25q11 0 19.5 7.5t12 14 t12.5 25.5l42 -22q-19 -41 -38.5 -60t-48.5 -19z" horiz-adv-x="543"/>
<glyph glyph-name="ograve" unicode="ò" d="M493 238q0 -104 -60 -176t-164 -72t-164 72t-60 176t60 176.5t164 72.5t164 -72.5t60 -176.5zM426 238q0 85 -41 140t-116 55t-116 -55t-41 -140t41 -139.5t116 -54.5t116 54.5t41 139.5zM300 554h-57l-92 156h80z" horiz-adv-x="538"/>
<glyph glyph-name="oacute" unicode="ó" d="M493 238q0 -104 -60 -176t-164 -72t-164 72t-60 176t60 176.5t164 72.5t164 -72.5t60 -176.5zM426 238q0 85 -41 140t-116 55t-116 -55t-41 -140t41 -139.5t116 -54.5t116 54.5t41 139.5zM285 554h-57l69 156h80z" horiz-adv-x="538"/>
<glyph glyph-name="ocircumflex" unicode="ô" d="M493 238q0 -104 -60 -176t-164 -72t-164 72t-60 176t60 176.5t164 72.5t164 -72.5t60 -176.5zM426 238q0 85 -41 140t-116 55t-116 -55t-41 -140t41 -139.5t116 -54.5t116 54.5t41 139.5zM303 710l107 -156h-64l-77 117l-77 -117h-64l107 156h68z" horiz-adv-x="538"/>
<glyph glyph-name="otilde" unicode="õ" d="M493 238q0 -104 -60 -176t-164 -72t-164 72t-60 176t60 176.5t164 72.5t164 -72.5t60 -176.5zM426 238q0 85 -41 140t-116 55t-116 -55t-41 -140t41 -139.5t116 -54.5t116 54.5t41 139.5zM343 575q-27 0 -75 27q-36 21 -54 21t-26 -9t-21 -37l-2 -4l-2 -4l-43 20 q17 47 37 67.5t57 20.5q31 0 72 -23q44 -25 58 -25q11 0 19.5 7.5t12 14t12.5 25.5l42 -22q-19 -41 -38.5 -60t-48.5 -19z" horiz-adv-x="538"/>
<glyph glyph-name="odieresis" unicode="ö" d="M493 238q0 -104 -60 -176t-164 -72t-164 72t-60 176t60 176.5t164 72.5t164 -72.5t60 -176.5zM426 238q0 85 -41 140t-116 55t-116 -55t-41 -140t41 -139.5t116 -54.5t116 54.5t41 139.5zM227 628q0 -21 -13.5 -34.5t-34.5 -13.5q-20 0 -33 13.5t-13 34.5q0 20 13 33 t33 13q21 0 34.5 -13t13.5 -33zM405 628q0 -21 -13.5 -34.5t-34.5 -13.5q-20 0 -33 13.5t-13 34.5q0 20 13 33t33 13q21 0 34.5 -13t13.5 -33z" horiz-adv-x="538"/>
<glyph glyph-name="divide" unicode="÷" d="M531 298h-451v51h451v-51zM256 143q0 21 14 35t35 14q23 0 36 -14t13 -35t-13 -35t-36 -14q-21 0 -35 14t-14 35zM256 504q0 21 14 35t35 14q23 0 36 -14t13 -35t-13 -35t-36 -14q-21 0 -35 14t-14 35z" horiz-adv-x="611"/>
<glyph glyph-name="oslash" unicode="ø" d="M48 -38l66 92q-66 72 -66 184q0 104 60 176.5t164 72.5q71 0 126 -38l65 90l33 -25l-67 -93q67 -72 67 -183q0 -104 -60 -176t-164 -72q-75 0 -127 37l-64 -89zM115 238q0 -80 36 -133l213 297q-37 31 -92 31q-75 0 -116 -55t-41 -140zM429 238q0 80 -36 133l-214 -297 q37 -30 93 -30q75 0 116 54.5t41 139.5z" horiz-adv-x="544"/>
<glyph glyph-name="ugrave" unicode="ù" d="M388 477h67v-477h-63v69q-60 -79 -158 -79q-81 0 -122 66.5t-41 167.5v253h67v-248q0 -90 26 -136.5t90 -46.5q75 0 134 74v357zM309 554h-57l-92 156h80z" horiz-adv-x="535"/>
<glyph glyph-name="uacute" unicode="ú" d="M388 477h67v-477h-63v69q-60 -79 -158 -79q-81 0 -122 66.5t-41 167.5v253h67v-248q0 -90 26 -136.5t90 -46.5q75 0 134 74v357zM276 554h-57l69 156h80z" horiz-adv-x="535"/>
<glyph glyph-name="ucircumflex" unicode="û" d="M388 477h67v-477h-63v69q-60 -79 -158 -79q-81 0 -122 66.5t-41 167.5v253h67v-248q0 -90 26 -136.5t90 -46.5q75 0 134 74v357zM304 710l107 -156h-64l-77 117l-77 -117h-64l107 156h68z" horiz-adv-x="535"/>
<glyph glyph-name="udieresis" unicode="ü" d="M388 477h67v-477h-63v69q-60 -79 -158 -79q-81 0 -122 66.5t-41 167.5v253h67v-248q0 -90 26 -136.5t90 -46.5q75 0 134 74v357zM224 628q0 -21 -13.5 -34.5t-34.5 -13.5q-20 0 -33 13.5t-13 34.5q0 20 13 33t33 13q21 0 34.5 -13t13.5 -33zM402 628q0 -21 -13.5 -34.5 t-34.5 -13.5q-20 0 -33 13.5t-13 34.5q0 20 13 33t33 13q21 0 34.5 -13t13.5 -33z" horiz-adv-x="535"/>
<glyph glyph-name="yacute" unicode="ý" d="M183 -206h-66l72 203l-172 480h70l136 -406l134 406h69zM235 554h-57l69 156h80z" horiz-adv-x="443"/>
<glyph glyph-name="thorn" unicode="þ" d="M80 -206v912h67v-291q61 72 154 72q90 0 138 -68.5t48 -176.5q0 -116 -65.5 -184t-175.5 -68q-51 0 -99 14v-210h-67zM285 432q-73 0 -138 -76v-296q37 -15 93 -15q88 0 134 51t46 146q0 88 -34 139t-101 51z" horiz-adv-x="532"/>
</font>
</defs>
</svg>
